# xmcd
#
# Track frame offsets:
#	150
#	14026
#	27616
#	38953
#	61030
#	72063
#	83458
#	112848
#	125975
#	140425
#	154848
#	173442
#	193741
#	206539
#	219979
#	249730
#
# Disc length: 3335 seconds
#
# Revision: 3
# Processed by: cddbd v1.5.2PL0 Copyright (c) Steve Scherf et al.
# Submitted via: audiograbber 1.83.01
#
DISCID=de0d0510
DTITLE=Various Artist - ASK 0521 Motown Classics Vol. 1
DYEAR=2003
DGENRE=R&B
TTITLE0=Al Green - Tired Of Being Alone
TTITLE1=Aretha Franklin - (You Make Me Feel Like) A Natural Woman
TTITLE2=Aretha Franklin - R.E.S.P.E.C.T.
TTITLE3=Chi Lites - Have You Seen Her
TTITLE4=Chubby Checker - Limbo Rock
TTITLE5=Chuck Willis - C. C. Rider
TTITLE6=Commodores, The - Three Times A Lady
TTITLE7=Dobie Gray - In Crowd, The
TTITLE8=Four Tops, The - Ain't No Woman Like The Once I've Got
TTITLE9=Four Tops, The - Bernadette
TTITLE10=Gladys Knight and The Pips - Midnight Train To Georgia
TTITLE11=Gladys Knight and The Pips - Neither One Of Us
TTITLE12=James Brown - It's A Man's Man's Man's World
TTITLE13=James Brown - I Got You (I Feel Good)
TTITLE14=James Brown - Living In America
TTITLE15=Data Track - Data Track
EXTD=
EXTT0=
EXTT1=
EXTT2=
EXTT3=
EXTT4=
EXTT5=
EXTT6=
EXTT7=
EXTT8=
EXTT9=
EXTT10=
EXTT11=
EXTT12=
EXTT13=
EXTT14=
EXTT15=
PLAYORDER=
